<svg width="27" height="28" viewBox="0 0 27 28" fill="none" xmlns="http://www.w3.org/2000/svg">
  <path
    d="M7.41585 18.4359H22.8439C24.5933 18.4359 26.0204 17.0087 26.0204 15.2593V8.76818C26.0204 8.76243 26.0204 8.75092 26.0204 8.74516C26.0204 8.7279 26.0204 8.71639 26.0204 8.69913C26.0204 8.68762 26.0204 8.67611 26.0147 8.6646C26.0147 8.65309 26.0089 8.63583 26.0089 8.62432C26.0089 8.61281 26.0031 8.6013 26.0031 8.58979C25.9974 8.57828 25.9974 8.56677 25.9916 8.54951C25.9859 8.538 25.9859 8.52649 25.9801 8.51498C25.9744 8.50347 25.9744 8.49196 25.9686 8.48045C25.9629 8.46894 25.9571 8.45743 25.9514 8.44017C25.9456 8.42866 25.9398 8.41715 25.9341 8.4114C25.9283 8.39989 25.9226 8.38838 25.9168 8.37687C25.9111 8.36536 25.9053 8.35961 25.8996 8.3481C25.8938 8.33659 25.8823 8.32508 25.8765 8.31357C25.8708 8.30206 25.865 8.2963 25.8535 8.2848C25.8478 8.27329 25.8363 8.26753 25.8305 8.25602C25.8248 8.24451 25.8132 8.23876 25.8075 8.22725C25.8017 8.21574 25.7902 8.20999 25.7845 8.20423C25.773 8.19272 25.7672 8.18697 25.7557 8.17546C25.7442 8.1697 25.7384 8.1582 25.7269 8.15244C25.7154 8.14669 25.7039 8.13518 25.6924 8.12942C25.6809 8.12367 25.6751 8.11791 25.6636 8.11216C25.6521 8.1064 25.6406 8.10065 25.6291 8.08914C25.6176 8.08339 25.6061 8.07763 25.5946 8.07188C25.5831 8.06612 25.5716 8.06037 25.56 8.05461C25.5485 8.04886 25.537 8.0431 25.5255 8.03735C25.514 8.0316 25.5025 8.03159 25.491 8.02584C25.4795 8.02009 25.4622 8.01433 25.4507 8.01433C25.4392 8.01433 25.4277 8.00858 25.4219 8.00858C25.4047 8.00282 25.3932 8.00282 25.3759 8.00282C25.3701 8.00282 25.3644 7.99707 25.3529 7.99707L5.79882 5.29817V2.5705C5.79882 2.54173 5.79882 2.51295 5.79306 2.48993C5.79306 2.48418 5.79306 2.47843 5.78731 2.46692C5.78731 2.44965 5.78155 2.43239 5.78155 2.41512C5.7758 2.39786 5.7758 2.38635 5.77004 2.36909C5.77004 2.35758 5.76429 2.35182 5.76429 2.34032C5.75854 2.32305 5.75278 2.30579 5.74703 2.28852C5.74703 2.28277 5.74127 2.27126 5.74127 2.26551C5.73552 2.24824 5.72976 2.23673 5.71825 2.21947C5.7125 2.21371 5.7125 2.20221 5.70674 2.19645C5.70099 2.18494 5.69524 2.17343 5.68373 2.16192C5.67797 2.15041 5.67222 2.14466 5.66646 2.13315C5.66071 2.12164 5.65495 2.11589 5.6492 2.10438C5.64344 2.09287 5.63193 2.08136 5.62618 2.06985C5.62043 2.0641 5.61467 2.05834 5.60892 2.05259C5.59741 2.04108 5.5859 2.02957 5.57439 2.01806C5.56863 2.0123 5.56288 2.00655 5.55713 2.0008C5.54562 1.98929 5.53411 1.97778 5.51684 1.96627C5.51109 1.96051 5.49958 1.95476 5.49382 1.949C5.48232 1.93749 5.47081 1.93174 5.4593 1.92023C5.44203 1.90872 5.42477 1.89721 5.41326 1.89146C5.40751 1.8857 5.40175 1.8857 5.396 1.87995C5.37298 1.86844 5.34421 1.85693 5.32119 1.84542L1.08006 0.0615021C0.682997 -0.105381 0.228385 0.0787658 0.0615021 0.475832C-0.105381 0.872898 0.0787659 1.32751 0.475832 1.49439L4.23933 3.08266V6.60446V7.16265V11.4441V15.2709V20.1047C4.23933 21.716 5.44779 23.051 7.00728 23.2525C6.7253 23.7243 6.55842 24.2768 6.55842 24.8637C6.55842 26.5959 7.96829 28 9.69467 28C11.421 28 12.8309 26.5901 12.8309 24.8637C12.8309 24.2883 12.6755 23.7416 12.3993 23.2812H19.3854C19.1092 23.7474 18.9538 24.2883 18.9538 24.8637C18.9538 26.5959 20.3637 28 22.09 28C23.8164 28 25.2263 26.5901 25.2263 24.8637C25.2263 23.1374 23.8164 21.7275 22.09 21.7275H7.41585C6.51814 21.7275 5.79306 20.9967 5.79306 20.1047V17.9985C6.26494 18.2747 6.82313 18.4359 7.41585 18.4359ZM11.2829 24.858C11.2829 25.7327 10.5694 26.4405 9.70042 26.4405C8.83148 26.4405 8.11791 25.7269 8.11791 24.858C8.11791 23.989 8.83148 23.2755 9.70042 23.2755C10.5694 23.2755 11.2829 23.9833 11.2829 24.858ZM23.6783 24.858C23.6783 25.7327 22.9647 26.4405 22.0958 26.4405C21.2268 26.4405 20.5133 25.7269 20.5133 24.858C20.5133 23.989 21.2268 23.2755 22.0958 23.2755C22.9647 23.2755 23.6783 23.9833 23.6783 24.858ZM22.8439 16.8821H7.41585C6.51814 16.8821 5.79306 16.1513 5.79306 15.2593V11.4326V7.15114V6.86341L24.4667 9.43571V15.2536C24.4667 16.1571 23.7358 16.8821 22.8439 16.8821Z"
    fill="#3A5EDC"/>
  <path d="M25 9L5.5 6.5L5 16L6.5 17.5H23L25 16V9Z" fill="#3A5EDC"/>
</svg>
