<svg width="28" height="28" viewBox="0 0 28 28" xmlns="http://www.w3.org/2000/svg">
  <path
    d="M8.4056 18.4359H23.8336C25.583 18.4359 27.0102 17.0087 27.0102 15.2593V8.76818C27.0102 8.76243 27.0102 8.75092 27.0102 8.74516C27.0102 8.7279 27.0102 8.71639 27.0102 8.69913C27.0102 8.68762 27.0102 8.67611 27.0044 8.6646C27.0044 8.65309 26.9986 8.63583 26.9986 8.62432C26.9986 8.61281 26.9929 8.6013 26.9929 8.58979C26.9871 8.57828 26.9871 8.56677 26.9814 8.54951C26.9756 8.538 26.9756 8.52649 26.9699 8.51498C26.9641 8.50347 26.9641 8.49196 26.9584 8.48045C26.9526 8.46894 26.9469 8.45743 26.9411 8.44017C26.9353 8.42866 26.9296 8.41715 26.9238 8.4114C26.9181 8.39989 26.9123 8.38838 26.9066 8.37687C26.9008 8.36536 26.8951 8.35961 26.8893 8.3481C26.8836 8.33659 26.872 8.32508 26.8663 8.31357C26.8605 8.30206 26.8548 8.2963 26.8433 8.2848C26.8375 8.27329 26.826 8.26753 26.8203 8.25602C26.8145 8.24451 26.803 8.23876 26.7972 8.22725C26.7915 8.21574 26.78 8.20999 26.7742 8.20423C26.7627 8.19272 26.757 8.18697 26.7454 8.17546C26.7339 8.1697 26.7282 8.1582 26.7167 8.15244C26.7052 8.14669 26.6937 8.13518 26.6821 8.12942C26.6706 8.12367 26.6649 8.11791 26.6534 8.11216C26.6419 8.1064 26.6304 8.10065 26.6188 8.08914C26.6073 8.08339 26.5958 8.07763 26.5843 8.07188C26.5728 8.06612 26.5613 8.06037 26.5498 8.05461C26.5383 8.04886 26.5268 8.0431 26.5153 8.03735C26.5038 8.0316 26.4922 8.03159 26.4807 8.02584C26.4692 8.02009 26.452 8.01433 26.4405 8.01433C26.4289 8.01433 26.4174 8.00858 26.4117 8.00858C26.3944 8.00282 26.3829 8.00282 26.3656 8.00282C26.3599 8.00282 26.3541 7.99707 26.3426 7.99707L6.78856 5.29817V2.5705C6.78856 2.54173 6.78856 2.51295 6.78281 2.48993C6.78281 2.48418 6.78281 2.47843 6.77705 2.46692C6.77705 2.44965 6.7713 2.43239 6.7713 2.41512C6.76555 2.39786 6.76555 2.38635 6.75979 2.36909C6.75979 2.35758 6.75404 2.35182 6.75404 2.34032C6.74828 2.32305 6.74253 2.30579 6.73677 2.28852C6.73677 2.28277 6.73102 2.27126 6.73102 2.26551C6.72526 2.24824 6.71951 2.23673 6.708 2.21947C6.70225 2.21371 6.70225 2.20221 6.69649 2.19645C6.69074 2.18494 6.68498 2.17343 6.67347 2.16192C6.66772 2.15041 6.66196 2.14466 6.65621 2.13315C6.65045 2.12164 6.6447 2.11589 6.63894 2.10438C6.63319 2.09287 6.62168 2.08136 6.61593 2.06985C6.61017 2.0641 6.60442 2.05834 6.59866 2.05259C6.58715 2.04108 6.57564 2.02957 6.56414 2.01806C6.55838 2.0123 6.55263 2.00655 6.54687 2.0008C6.53536 1.98929 6.52385 1.97778 6.50659 1.96627C6.50083 1.96051 6.48933 1.95476 6.48357 1.949C6.47206 1.93749 6.46055 1.93174 6.44904 1.92023C6.43178 1.90872 6.41452 1.89721 6.40301 1.89146C6.39725 1.8857 6.3915 1.8857 6.38574 1.87995C6.36272 1.86844 6.33395 1.85693 6.31093 1.84542L2.06981 0.0615021C1.67274 -0.105381 1.21813 0.0787658 1.05125 0.475832C0.884365 0.872898 1.06851 1.32751 1.46558 1.49439L5.22907 3.08266V6.60446V7.16265V11.4441V15.2709V20.1047C5.22907 21.716 6.43753 23.051 7.99703 23.2525C7.71505 23.7243 7.54817 24.2768 7.54817 24.8637C7.54817 26.5959 8.95804 28 10.6844 28C12.4108 28 13.8207 26.5901 13.8207 24.8637C13.8207 24.2883 13.6653 23.7416 13.3891 23.2812H20.3751C20.0989 23.7474 19.9435 24.2883 19.9435 24.8637C19.9435 26.5959 21.3534 28 23.0798 28C24.8062 28 26.216 26.5901 26.216 24.8637C26.216 23.1374 24.8062 21.7275 23.0798 21.7275H8.4056C7.50789 21.7275 6.78281 20.9967 6.78281 20.1047V17.9985C7.25468 18.2747 7.81288 18.4359 8.4056 18.4359ZM12.2727 24.858C12.2727 25.7327 11.5591 26.4405 10.6902 26.4405C9.82123 26.4405 9.10766 25.7269 9.10766 24.858C9.10766 23.989 9.82123 23.2755 10.6902 23.2755C11.5591 23.2755 12.2727 23.9833 12.2727 24.858ZM24.668 24.858C24.668 25.7327 23.9545 26.4405 23.0855 26.4405C22.2166 26.4405 21.503 25.7269 21.503 24.858C21.503 23.989 22.2166 23.2755 23.0855 23.2755C23.9545 23.2755 24.668 23.9833 24.668 24.858ZM23.8336 16.8821H8.4056C7.50789 16.8821 6.78281 16.1513 6.78281 15.2593V11.4326V7.15114V6.86341L25.4564 9.43571V15.2536C25.4564 16.1571 24.7256 16.8821 23.8336 16.8821Z"
  />
</svg>
